<svg height="200" viewBox="0 0 200 200" width="200" xmlns="http://www.w3.org/2000/svg"><circle cx="100" cy="100" fill="#def4f9" r="100"/><path d="m118.56 55.24a9.583 9.583 0 0 0 -15.91 0l-46.37 59.99c-3.05 3.94-2.64 6.88-2.13 8.28.52 1.42 2.06 3.79 6.62 3.79h16.75v78.638a100.4 100.4 0 0 0 66.18-1.126v-77.512h16.75c4.55 0 6.09-2.37 6.61-3.78s.92-4.35-2.13-8.29z" fill="#fff" transform="translate(-9 -11)"/><path d="m143.7 164.41 52.59-52.59c-.87-.49-1.76-.96-2.66-1.4l-49.93 49.93z" fill="#a9d5ed" transform="translate(-9 -11)"/><path d="m143.7 173.82 58.33-58.33c-.79-.57-1.59-1.13-2.4-1.66l-55.93 55.923z" fill="#a9d5ed" transform="translate(-9 -11)"/><path d="m143.7 155 46.24-46.24c-.97-.4-1.96-.77-2.96-1.11l-43.28 43.28z" fill="#a9d5ed" transform="translate(-9 -11)"/><path d="m134.7 121.125v4.065l8.89-8.89h-4.064z" fill="#a9d5ed"/><g transform="translate(-9 -11)"><path d="m143.7 183.23 63.49-63.49c-.71-.65-1.43-1.29-2.16-1.9l-61.33 61.33z" fill="#a9d5ed"/><path d="m143.7 145.6 18.423-18.423a11.106 11.106 0 0 1 -1.673.123h-2.52l-14.23 14.23z" fill="#a9d5ed"/><path d="m167.4 121.905 15.495-15.5c-1.09-.28-2.19-.54-3.31-.76l-12.785 12.783a7.869 7.869 0 0 1 .6 3.477z" fill="#a9d5ed"/><path d="m187.258 173.252-16.006 16.006a100.627 100.627 0 0 0 16.006-16.006z" fill="#a9d5ed"/><path d="m155.742 199.418 41.676-41.676q2.007-3.789 3.7-7.761l-53.148 53.141q3.979-1.684 7.772-3.704z" fill="#a9d5ed"/><path d="m143.7 188.59v4.062l63.686-63.679q.434-2.391.752-4.821z" fill="#a9d5ed"/><path d="m143.7 202.05 60.56-60.56q.9-2.823 1.644-5.714l-62.2 62.2z" fill="#a9d5ed"/><path d="m134.275 207.756.02.014c.245-.064.486-.136.73-.2-.248.065-.501.121-.75.186z" fill="#a9d5ed"/><path d="m135.932 207.318c1.165-.326 2.326-.666 3.474-1.033-1.148.367-2.306.707-3.474 1.033z" fill="#a9d5ed"/><path d="m160.71 109.77 5.17-5.17c-1.49.06-2.97.18-4.42.36l-2.52 2.52z" fill="#a9d5ed"/><path d="m164.812 115.078 10.158-10.158c-1.24-.14-2.49-.25-3.75-.31l-8.178 8.177z" fill="#a9d5ed"/><path d="m119.521 54.5a10.79 10.79 0 0 0 -17.832 0l-46.37 59.989c-3.4 4.394-2.907 7.8-2.309 9.441.627 1.713 2.469 4.587 7.76 4.587h15.536v77.012q1.208.417 2.428.806v-80.25h-17.964c-3.623 0-4.979-1.627-5.479-2.991-.426-1.169-.739-3.648 1.95-7.121l46.371-59.992a8.374 8.374 0 0 1 13.987 0l46.371 59.991c2.686 3.469 2.374 5.958 1.95 7.126-.5 1.362-1.858 2.985-5.47 2.985h-17.965v79.163q1.222-.433 2.43-.9v-75.831h15.535c5.276 0 7.119-2.868 7.751-4.581.6-1.645 1.088-5.058-2.31-9.446z" fill="#566875"/><path d="m117.56 60.33a8.689 8.689 0 0 0 -14.27 0l-41.61 52.81c-2.73 3.47-2.37 6.06-1.91 7.29s1.85 3.33 5.94 3.33h15.03v83.184a100.435 100.435 0 0 0 59.38-.889v-82.295h15.03c4.08 0 5.47-2.09 5.93-3.33s.82-3.82-1.91-7.29z" fill="#f58025"/><path d="m53.27 148.569h-6.248v-6.2a.8.8 0 0 0 -.8-.8h-3.985a.8.8 0 0 0 -.8.8v6.2h-6.247a.8.8 0 0 0 -.8.8v3.985a.8.8 0 0 0 .8.8h6.248v6.246a.8.8 0 0 0 .8.8h3.986a.8.8 0 0 0 .8-.8v-6.247h6.246a.8.8 0 0 0 .8-.8v-3.985a.8.8 0 0 0 -.8-.799z" fill="#f58025"/><path d="m163.367 72.062a8.65 8.65 0 0 0 2.339-6.132c0-4.45-2.871-7.936-6.536-7.936s-6.535 3.486-6.535 7.936 2.87 7.936 6.535 7.936a5.923 5.923 0 0 0 4.197-1.804zm-7.422-6.142c0-2.57 1.507-4.824 3.225-4.824s3.23 2.254 3.23 4.824-1.507 4.824-3.225 4.824-3.23-2.254-3.23-4.824zm20.195 1.944c-3.665 0-6.536 3.486-6.536 7.936s2.871 7.936 6.536 7.936 6.536-3.486 6.536-7.936-2.871-7.936-6.536-7.936zm0 12.761c-1.717 0-3.224-2.255-3.224-4.825s1.507-4.824 3.224-4.824 3.224 2.254 3.224 4.824-1.507 4.825-3.224 4.825zm.625-21.458a1.556 1.556 0 0 0 -.795-.978 1.716 1.716 0 0 0 -2.238.551l-14.991 23.321a1.46 1.46 0 0 0 -.185 1.171 1.542 1.542 0 0 0 .773.968 1.624 1.624 0 0 0 .831.216 1.7 1.7 0 0 0 1.428-.755l14.991-23.322a1.464 1.464 0 0 0 .186-1.172z" fill="#f58025"/></g></svg>