<svg height="50" viewBox="0 0 50 50" width="50" xmlns="http://www.w3.org/2000/svg"><g fill="#ef6a00"><path d="m7.139 4.036h26.742c.212 0 .385.172.385.385v12.636h4.039v-14.768c0-1.201-.983-2.292-2.293-2.292h-31.004c-1.267 0-2.293 1.026-2.293 2.292v40.83c0 1.201.983 2.293 2.293 2.293h21.179v-7.424h-19.048c-.212 0-.385-.172-.385-.385v-33.183c0-.212.172-.385.385-.385zm13.371 35.818c.983 0 1.747.764 1.747 1.747s-.764 1.747-1.747 1.747-1.747-.764-1.747-1.747.764-1.747 1.747-1.747z"/><path d="m45.196 19h-14.935c-1.177 0-2.131.972-2.131 2.17v26.66c0 1.198.954 2.17 2.131 2.17h14.935c1.177 0 2.131-.972 2.131-2.17v-26.66c0-1.198-.954-2.17-2.131-2.17zm0 27.9c0 .514-.409.93-.913.93h-13.109c-.504 0-.913-.416-.913-.93v-24.8c0-.514.409-.93.913-.93h2.53l.809 1.02c.231.291.579.461.947.461h4.301c.335 0 .656-.141.886-.39l1.01-1.091h2.626c.504 0 .913.416.913.93z"/></g></svg>