<svg height="50" viewBox="0 0 50 50" width="50" xmlns="http://www.w3.org/2000/svg"><path d="m44.444 21.384v-7.231h-5.556v1.675l-5.379-5.379-3.086-3.086-3.086 3.086-3.175 3.175h-9.788l-14.374 13.404 1.675 1.675h2.469v13.933h41.535v-13.933h2.646l1.675-1.676-5.556-5.644zm-29.541 19.224h-8.642v-11.552h8.642zm28.748-.088h-26.808v-13.845l7.496-7.496 5.82-5.644.088-.088 13.404 13.227v13.845zm-14.336-21.379v1.863c-2.692.311-4.287 2.03-4.287 4.433 0 1.222.352 2.195 1.057 2.879.683.683 1.801 1.201 3.542 1.326v3.749c-1.155-.039-2.24-.301-3.082-1.025-.135-.116-.331-.12-.456.005l-1.396 1.395c-.134.134-.134.36.005.49 1.271 1.185 2.753 1.644 4.618 1.702v2.237h2.113v-2.32c2.61-.31 4.473-1.864 4.473-4.391 0-1.305-.373-2.382-1.16-3.128-.683-.642-1.387-.932-3.603-1.263v-3.604c.776.055 1.65.276 2.316.793.137.107.326.108.561-.125l1.241-1.226c.138-.137.133-.367-.015-.494-1.053-.912-2.249-1.359-3.813-1.454v-1.843h-2.113zm.311 7.829c-.601-.083-1.057-.29-1.388-.579-.31-.29-.435-.663-.435-1.057 0-.912.6-1.657 1.823-1.823zm2.982 3.355c.31.29.455.725.455 1.223 0 1.014-.684 1.636-1.926 1.801v-3.542c.642.083 1.077.145 1.471.518z" fill="#f58025"/></svg>