<svg height="50" viewBox="0 0 50 50" width="50" xmlns="http://www.w3.org/2000/svg"><path d="m44.444 21.384v-7.231h-5.556v1.675l-5.379-5.379-3.086-3.086-3.086 3.086-3.175 3.175h-9.788l-14.374 13.404 1.675 1.675h2.469v13.933h41.535v-13.933h2.646l1.675-1.676-5.556-5.644zm-29.541 19.224h-8.642v-11.552h8.642zm28.748-.088h-26.808v-13.845l7.496-7.496 5.82-5.644.088-.088 13.404 13.227v13.845zm-15.792-2.935 6.923-14.605h-2.077l-6.923 14.605zm4.154-4.699v2.027c0 1.844 1.339 2.81 2.954 2.81s2.954-.967 2.954-2.81v-2.027c0-1.844-1.383-2.81-2.954-2.81-1.615 0-2.954.968-2.954 2.81zm1.892.046c0-.783.369-1.152 1.061-1.152.646 0 1.015.414 1.061 1.152v1.844c0 .783-.415 1.152-1.061 1.152-.692 0-1.061-.368-1.061-1.152zm-5.307-5.206v-2.027c0-1.844-1.383-2.81-2.954-2.81-1.615 0-2.954.967-2.954 2.81v2.027c-.046 1.843 1.339 2.81 2.954 2.81s2.954-.968 2.954-2.81zm-1.938-.135c0 .783-.369 1.152-1.061 1.152-.646 0-1.061-.368-1.061-1.152v-1.844c0-.783.369-1.152 1.061-1.152s1.061.367 1.061 1.152z" fill="#f58025"/></svg>