<svg height="50" viewBox="0 0 50 50" width="50" xmlns="http://www.w3.org/2000/svg"><path d="m25.054 8.007 24.51 7.516a.851.851 0 0 1 .436.436.6.6 0 0 1 -.327.544l-9.8 4.358c1.307.653 1.852.544 2.506 1.96a44.288 44.288 0 0 1 1.743 7.408 1.812 1.812 0 0 1 1.2 1.743c0 .544-.109.435-.218.653l3.486 8.388-4.684.98-.763-8.605a1.77 1.77 0 0 1 -1.089-1.743 1.83 1.83 0 0 1 .654-1.2 38.848 38.848 0 0 0 -1.743-7.081c-.436-1.089-2.179-1.634-3.377-2.07-4.467-1.743-8.824-3.377-13.29-4.793a.381.381 0 0 1 -.218-.109.686.686 0 0 0 .436.872c3.484 1.309 7.074 2.836 11.867 5.122l-11.329 5.014a.333.333 0 0 1 -.435 0l-24.292-10.9a.6.6 0 0 1 -.327-.541.4.4 0 0 1 .436-.436l24.292-7.516zm-14.379 14.923-.653 10.57c0 .109 0 .218.109.218.109.109.218.109.218 0 5.01-1.2 10.457 1.2 14.379 6.753.109.109.326.109.326 0 3.922-5.446 9.369-7.952 14.38-6.753h.217c.109-.109.109-.109.109-.218l-.653-10.458-13.29 5.883a2.088 2.088 0 0 1 -1.961 0z" fill="#f58025" fill-rule="evenodd"/></svg>