<svg height="50" viewBox="0 0 50 50" width="50" xmlns="http://www.w3.org/2000/svg"><path d="m41.349 23.439v-16.692c-9.771 2.545-19.542-8.247-29.313-1.73v16.692c9.771-6.509 19.542 4.275 29.313 1.73zm-27.277-7.939v-6.412a7.254 7.254 0 0 0 3.155-4.071c6.31-.814 12.621 3.257 18.931 4.071a4.293 4.293 0 0 0 3.155 3.257v6.31a4.537 4.537 0 0 0 -3.155 3.054c-6.31-.814-12.621-4.886-19.033-3.97a2.584 2.584 0 0 0 -3.053-2.239zm-6.107 13.232a1.365 1.365 0 0 0 -2-.94c-.548.247-5.965 2.419-5.965 2.419l6.107 16.9 6.031-2.6s1.221-.61.916-1.73c-1.119-3.261-4.665-12.936-5.089-14.049zm19.87-14.314a.886.886 0 0 0 -.18-.548 1.417 1.417 0 0 0 -.582-.41v1.4c.492.109.762-.041.762-.442zm-1.378-3.839c-.524-.115-.782.114-.782.5a.839.839 0 0 0 .187.519 1.753 1.753 0 0 0 .6.459zm8.989 6.041a1.323 1.323 0 1 0 -1.324-1.32 1.283 1.283 0 0 0 1.324 1.32zm-17.506-6.82a1.323 1.323 0 1 0 1.323 1.323 1.347 1.347 0 0 0 -1.323-1.323zm31.348 14.657a.768.768 0 0 0 -.815-.1l-7.328 4.883a3.659 3.659 0 0 1 .2 1.12c-.1 1.527-1.629 2.646-3.97 2.952-4.58.712-12.01-.2-12.315-.2a1.023 1.023 0 0 1 .2-2.036c.1 0 7.43.917 11.806.2 1.629-.2 2.239-.814 2.239-1.119.306-1.629-1.425-2.545-5.6-2.443a15.083 15.083 0 0 1 -4.783-1.527c-9.262-4.58-13.13-.2-14.656 1.12-.1.1-1.934.916-3.97 1.73l.2.611c.712 1.832 1.73 4.783 2.748 7.531l1.933-1.119c.713-.407 2.749-.2 3.563 0l9.567 2.646a13.682 13.682 0 0 0 5.8-.1c6.921-2.239 13.13-8.244 14.758-10.076 1.644-1.936 1.235-3.361.423-4.073zm-22.595-6.284c2.89.929 5.265-.619 5.265-3.613a8.131 8.131 0 0 0 -5.265-7.021 3.9 3.9 0 0 0 -5.266 3.923 7.5 7.5 0 0 0 5.266 6.711zm-1.755-6.073a2.263 2.263 0 0 1 -.453-1.4c0-1.031.684-1.525 1.839-1.249v-.8l.9.321v.79a4.025 4.025 0 0 1 1.751 1.349l-.782.5a2.6 2.6 0 0 0 -.969-.745v1.544a3.627 3.627 0 0 1 1.422 1.025 2.445 2.445 0 0 1 .5 1.518c0 1.083-.8 1.466-1.919 1.2v.995l-.9-.316v-.962a4.335 4.335 0 0 1 -2.09-1.57l.8-.516a2.976 2.976 0 0 0 1.288.977v-1.618a3.492 3.492 0 0 1 -1.387-1.043z" fill="#f58025"/></svg>