<svg height="50" viewBox="0 0 50 50" width="50" xmlns="http://www.w3.org/2000/svg"><path d="m48.752 24.946h-7.13c-.689 0-1.248.559-1.248 1.248v22.559c0 .689.559 1.248 1.248 1.248h7.13c.689 0 1.248-.559 1.248-1.248v-22.56c0-.689-.559-1.248-1.248-1.248zm-27.087-3.327h-7.13c-.689 0-1.248.559-1.248 1.248v25.886c0 .689.559 1.248 1.248 1.248h7.13c.689 0 1.248-.559 1.248-1.248v-25.887c0-.689-.559-1.248-1.248-1.248zm13.439 7.135h-7.13c-.689 0-1.248.559-1.248 1.248v18.751c0 .689.559 1.248 1.248 1.248h7.13c.689 0 1.248-.559 1.248-1.248v-18.752c0-.689-.559-1.248-1.248-1.248zm-26.725 0h-7.131c-.689 0-1.248.558-1.248 1.247v18.751c0 .689.559 1.248 1.248 1.248h7.13c.689 0 1.248-.559 1.248-1.248v-18.751c0-.689-.559-1.248-1.248-1.248zm-3.565-8.529c2.206 0 4-1.794 4-4 0-.668-.18-1.288-.471-1.842l7.73-6.988c.632.418 1.386.664 2.199.664 1.101 0 2.1-.448 2.824-1.17l6.807 4.021c-.102.352-.173.716-.173 1.1 0 2.206 1.794 4 4 4s4-1.794 4-4c0-.384-.072-.748-.173-1.099l6.807-4.021c.724.723 1.722 1.17 2.824 1.17 2.206 0 4-1.794 4-4s-1.795-4.001-4.001-4.001-4 1.794-4 4c0 .384.072.748.173 1.1l-6.807 4.021c-.724-.723-1.723-1.17-2.824-1.17s-2.1.448-2.824 1.17l-6.807-4.021c.101-.352.173-.716.173-1.099 0-2.206-1.795-4.001-4-4.001s-4 1.794-4 4c0 .668.18 1.289.471 1.843l-7.73 6.988c-.632-.418-1.387-.665-2.199-.665-2.206 0-4 1.794-4 4s1.794 4 4 4zm40.373-18.166c1.103 0 2 .897 2 2s-.897 2-2 2-2-.897-2-2 .897-2 2-2zm-13.458 7.951c1.103 0 2 .897 2 2s-.897 2-2 2-2-.897-2-2 .897-2 2-2zm-13.458-7.951c1.103 0 2 .897 2 2s-.897 2-2 2-2-.897-2-2 .897-2 2-2zm-13.458 12.166c1.103 0 2 .897 2 2s-.897 2-2 2-2-.897-2-2 .897-2 2-2z" fill="#f58025"/></svg>