<svg height="50" viewBox="0 0 50 50" width="50" xmlns="http://www.w3.org/2000/svg"><path d="m30.409 6.192c-1.753-2.988-5.596-3.988-8.584-2.235-.924.542-1.693 1.312-2.235 2.235h-18.171v40.682h47.034v-40.682zm9.98 28.121h-2.063v6.038h2.063v4.403h-8.347v-17.015h8.347v6.575zm5.945 10.442h-3.826v-19.137h-12.585v19.137h-26.382v-22.963h42.793zm-40.383-25.081v-5.716h3.733v5.716zm8.265 0v-5.716h4.125v5.716zm8.657 0v-5.716h4.126v5.716zm8.658 0v-5.716h4.126v5.716zm8.658 0v-5.716h3.733v5.716zm6.146-7.835h-42.797v-3.527h17.381l.28-.628c.932-2.098 3.389-3.043 5.486-2.11.94.418 1.692 1.17 2.11 2.11l.28.628h17.252l.006 3.527zm-20.274 13.78h-18.694v14.697h18.693v-14.697zm-2.12 12.576h-14.455v-10.456h14.454v10.456zm-10.341-8.974-2.63 2.631v2.997l5.626-5.628zm22.484 0-2.633 2.631v2.997l5.626-5.628h-2.994z" fill="#f58025"/></svg>